<svg id="レイヤー_1" data-name="レイヤー 1" xmlns="http://www.w3.org/2000/svg" viewBox="0 0 96 40"><defs><style>.cls-1{fill:#0b41a0;}</style></defs><title>アートボード 1</title><path class="cls-1" d="M93.26,39H2.74A2.75,2.75,0,0,1,0,36.25V23.75A2.75,2.75,0,0,1,2.74,21H93.26A2.75,2.75,0,0,1,96,23.75V36.25A2.75,2.75,0,0,1,93.26,39ZM2.74,21.81A1.94,1.94,0,0,0,.81,23.75V36.25a1.93,1.93,0,0,0,1.93,1.94H93.26a1.93,1.93,0,0,0,1.93-1.94V23.75a1.94,1.94,0,0,0-1.93-1.94Z"/><path class="cls-1" d="M27.65,34.47H23V25.62h4.47v.81H23.94v3h3.3v.8h-3.3v3.43h3.71Z"/><path class="cls-1" d="M36.48,34.47h-1l-2.82-4.66a27.23,27.23,0,0,1-1.59-2.95h0c.08,1.13.09,2.16.09,3.69v3.9h-.91V25.62h1l2.86,4.66a27.82,27.82,0,0,1,1.54,2.89h0c-.09-1.23-.12-2.29-.12-3.68V25.62h.92Z"/><path class="cls-1" d="M45.92,34.11a7.21,7.21,0,0,1-2.52.45c-3.47,0-4.3-2.59-4.3-4.46a4.29,4.29,0,0,1,4.53-4.56,5.12,5.12,0,0,1,2,.37l-.26.8a4.18,4.18,0,0,0-1.81-.36A3.34,3.34,0,0,0,40.11,30c0,2.39,1.34,3.73,3.36,3.73a3.39,3.39,0,0,0,1.5-.26V30.68H43.18V29.9h2.74Z"/><path class="cls-1" d="M53.41,34.47H48.79V25.62h1v8h3.66Z"/><path class="cls-1" d="M55.83,25.62h1v8.85h-1Z"/><path class="cls-1" d="M63.89,26.71a3,3,0,0,0-1.56-.41c-1.23,0-1.69.76-1.69,1.39,0,.87.54,1.31,1.72,1.81,1.43.6,2.16,1.34,2.16,2.6s-1,2.48-2.93,2.48A4.08,4.08,0,0,1,59.47,34l.27-.8a3.61,3.61,0,0,0,1.9.55c1.18,0,1.88-.64,1.88-1.59s-.47-1.41-1.63-1.87c-1.33-.5-2.24-1.28-2.24-2.5a2.43,2.43,0,0,1,2.71-2.34,3.59,3.59,0,0,1,1.81.42Z"/><path class="cls-1" d="M73.37,34.47h-1V30.24H68.19v4.23h-1V25.63h1V29.4h4.23V25.63h1Z"/><path class="cls-1" d="M50.54,3.09h-.81a.74.74,0,0,0-.69.78v.21a2.5,2.5,0,0,1-.47,1.35L42.2,13.21a.73.73,0,0,0,.09,1l.58.47a.74.74,0,0,0,1-.12L47,10.75v5.73a.74.74,0,0,0,.69.78h1.5V8.86a2.47,2.47,0,0,1,.47-1.35l1.53-1.85V3.88A.74.74,0,0,0,50.54,3.09Z"/><path class="cls-1" d="M24.3,1.28H15.75a.74.74,0,0,0-.69.78v8.26a.74.74,0,0,0,.69.78h1.5v-2a.74.74,0,0,1,.69-.78l4.91,0v2.05a2.47,2.47,0,0,1-.46,1.36l-3,3.75a.73.73,0,0,0,.1,1L20,17a.74.74,0,0,0,1-.12s2.5-3.08,3-3.73a4.12,4.12,0,0,0,1-2.66c0-1,0-8.37,0-8.37A.74.74,0,0,0,24.3,1.28ZM17.92,6.16a.74.74,0,0,1-.69-.78V4.24a.74.74,0,0,1,.69-.78l4.9,0v2.7Z"/><path class="cls-1" d="M38.56,1.34H30a.74.74,0,0,0-.69.78v.62a.74.74,0,0,0,.69.78h9.25V2.12A.74.74,0,0,0,38.56,1.34Z"/><path class="cls-1" d="M38.56,6.07H30a.74.74,0,0,0-.69.78v.62a.74.74,0,0,0,.69.78h3.86v2.14a2.49,2.49,0,0,1-.47,1.35l-3.05,3.76a.73.73,0,0,0,.1,1L31,17a.74.74,0,0,0,1-.12s2.23-2.75,2.91-3.6a4.11,4.11,0,0,0,1.09-2.75V9a.74.74,0,0,1,.69-.78h2.5V6.85A.74.74,0,0,0,38.56,6.07Z"/><path class="cls-1" d="M94.5,1.35h-.81a.74.74,0,0,0-.69.78l0,8.21a2.48,2.48,0,0,1-.46,1.35l-3.05,3.76a.73.73,0,0,0,.1,1l.58.46a.74.74,0,0,0,1-.12s2.37-2.89,3-3.66a4.13,4.13,0,0,0,1-2.77c0-1.07,0-8.27,0-8.27A.74.74,0,0,0,94.5,1.35Z"/><path class="cls-1" d="M87.45,1.35h-.81a.74.74,0,0,0-.69.78l0,7.22a.74.74,0,0,0,.69.78h1.5l0-8A.74.74,0,0,0,87.45,1.35Z"/><path class="cls-1" d="M67,2.62H65.91a.75.75,0,0,1-.69-.78V1.68A.74.74,0,0,0,64.52.9h-.81a.74.74,0,0,0-.69.78v.92H60a.75.75,0,0,1-.69-.78V1.72a.74.74,0,0,0-.69-.78h-.81a.74.74,0,0,0-.69.78v.88h-2a.74.74,0,0,0-.69.78V4a.74.74,0,0,0,.69.78h2l0,5.54a.74.74,0,0,0,.69.78h1.5l0-5.53A.74.74,0,0,1,60,4.79H63l0,5.56a2.47,2.47,0,0,1-.46,1.35l-3.05,3.76a.73.73,0,0,0,.1,1l.58.46a.74.74,0,0,0,1-.12s2.42-3,3.07-3.79a3.67,3.67,0,0,0,.92-2.65c0-1.13,0-4.81,0-4.81a.74.74,0,0,1,.69-.78h1.73V3.4A.74.74,0,0,0,67,2.62Z"/><path class="cls-1" d="M7.92,10.69A.83.83,0,0,1,7.87,9.6L9.42,7.72a4.07,4.07,0,0,0,.84-2.45c0-1,0-3.2,0-3.2a.74.74,0,0,0-.69-.78H1.46a.74.74,0,0,0-.69.78v.62a.74.74,0,0,0,.69.78H8V5.16a2.49,2.49,0,0,1-.47,1.35l-7.41,9a.73.73,0,0,0,.09,1L.84,17a.74.74,0,0,0,1-.12l3.68-4.48a.66.66,0,0,1,1-.06L11.14,17a.74.74,0,0,0,1,0l.51-.51a.73.73,0,0,0,0-1Z"/><path class="cls-1" d="M42.87,3.49V2.09a.74.74,0,0,0-.69-.78H41.7a.74.74,0,0,0-.69.78V2.7a.74.74,0,0,0,.69.78h1.17Z"/><path class="cls-1" d="M44.54,3.48h1.17V2.09A.74.74,0,0,0,45,1.31h-.48a.74.74,0,0,0-.69.78V2.7A.74.74,0,0,0,44.54,3.48Z"/><path class="cls-1" d="M80.1,0a2.72,2.72,0,0,0-2.65,2.46H70.64a.74.74,0,0,0-.69.78v.62a.74.74,0,0,0,.69.78H77.7l0,5.7a2.48,2.48,0,0,1-.46,1.36l-3,3.75a.73.73,0,0,0,.09,1l.58.46a.74.74,0,0,0,1-.12s2.34-2.87,3-3.66a4.41,4.41,0,0,0,1-2.81c0-1.08,0-4.76,0-4.76h.19a2.74,2.74,0,0,0,2.67-2.81A2.74,2.74,0,0,0,80.1,0Zm0,3.84a1,1,0,0,1-1-1,1,1,0,1,1,2,0A1,1,0,0,1,80.1,3.84Z"/></svg>