<svg id="レイヤー_1" data-name="レイヤー 1" xmlns="http://www.w3.org/2000/svg" xmlns:xlink="http://www.w3.org/1999/xlink" viewBox="0 0 299.64 26.28"><defs><style>.cls-1{fill:#b7c1c7;}.cls-2{fill:url(#linear-gradient);}.cls-3{fill:#fff;}</style><linearGradient id="linear-gradient" x1="0.18" y1="9.08" x2="19.31" y2="18" gradientUnits="userSpaceOnUse"><stop offset="0" stop-color="#58b8e2"/><stop offset="0.11" stop-color="#3196cf"/><stop offset="0.2" stop-color="#1981c2"/><stop offset="0.25" stop-color="#1079be"/><stop offset="0.4" stop-color="#0d63a9"/><stop offset="0.64" stop-color="#0b579f"/><stop offset="1" stop-color="#084a95"/></linearGradient></defs><title>アートボード 1</title><path class="cls-1" d="M22.36,10.8C4.45,8.47.26,23.59.26,24.18c0,2.33,6.41,2.59,6.89,0,1.45-7.74,5.59-12.24,14.33-12.24C22.69,11.94,22.59,10.83,22.36,10.8Z"/><path class="cls-2" d="M12.46,0C7.21,0,0,3.13,0,13.16V23.93c0,3,7,3,7,0V12.78C7,8.07,10,4.6,14.18,4.5c3.28-.08,6,1.43,6,6.43,0,1,2.37,1,2.37,0C22.54,2.93,18.07,0,12.46,0Z"/><path class="cls-3" d="M29.6,25.93H27c-.23,0-.32-.43-.43-.59l-3.06-4.41h-.3c-.55,0-1.22.18-2.22.16v4.19c0,.17.16.65-.07.65H18.8c-.23,0-.8-.47-.8-.65V14.65c0-.31.44-.42.87-.46A38.12,38.12,0,0,1,23,14c3.27,0,6,.85,6,3.5v.14c0,1.64-1,2.66-2.7,3.16l3.43,4.68C29.84,25.61,29.84,25.93,29.6,25.93ZM26,17.48c0-1.16-1-1.65-3.15-1.65-.45,0-.85,0-1.85.06v3.48l1.85,0C25,19.41,26,19,26,17.62Z"/><path class="cls-3" d="M40.79,25.51a25.9,25.9,0,0,1-4,.22c-2.77,0-4.83-.54-4.83-3.17v-5.4C32,14.52,34.17,14,36.94,14a23.64,23.64,0,0,1,3.84.22c.32,0,.22.11.22.32v1c0,.17.24.42,0,.42H36.67c-1.23,0-1.67.2-1.67,1.22v1.78h5.75c.23,0,.25,0,.25.2v1.11c0,.17,0,.69-.25.69H35v1.62c0,1,.43,1.38,1.67,1.38H41c.23,0,0,.09,0,.26v1C41,25.4,41.11,25.48,40.79,25.51Z"/><path class="cls-3" d="M53.29,25.48a21.09,21.09,0,0,1-3.32.25c-2.55,0-6-.91-6-4.73V18.71C44,14.83,47.3,14,49.85,14a24.68,24.68,0,0,1,3.52.25c.28.06.63.14.63.35v1c0,.2-.37.34-.71.33-.74,0-2.13-.12-3.26-.12-1.79,0-3,.69-3,2.89V21c0,2.15,1.12,2.89,2.91,2.89,1.13,0,2.73-.08,3.47-.12.34,0,.62.12.62.33v1C54,25.34,53.56,25.41,53.29,25.48Z"/><path class="cls-3" d="M67.08,25.93h-2.6c-.23,0-.32-.43-.42-.59L61,20.93h-.3c-.55,0-1.7.18-1.7.16v4.19c0,.17-.36.65-.6.65H56.28c-.23,0-.28-.47-.28-.65V14.65c0-.31.18-.42.61-.46a40.79,40.79,0,0,1,4.22-.2c3.28,0,6.17.85,6.17,3.5v.14c0,1.64-1.21,2.66-3,3.16l3.3,4.68A.33.33,0,0,1,67.08,25.93ZM64,17.48c0-1.16-1-1.65-3.15-1.65-.45,0-1.85,0-1.85.06v3.48s1.49,0,1.85,0C63,19.41,64,19,64,17.62Z"/><path class="cls-3" d="M79.75,25.46c-.74.08-3.54.26-4.83.26-3.42,0-5.92-1.05-5.92-4.35v-7a.66.66,0,0,1,.55-.47h2.11c.23,0,.35.3.35.47v7c0,1.76.66,2.57,3,2.57.85,0,2-.06,3-.12V14.4c0-.17,0-.47.27-.47h2.1c.23,0,.63.3.63.47V24.52C81,25.17,80.52,25.38,79.75,25.46Z"/><path class="cls-3" d="M86.31,25.93H84.2c-.23,0-.2-.47-.2-.65V14.4c0-.17,0-.47.2-.47h2.11c.23,0,.69.3.69.47V25.29A1.1,1.1,0,0,1,86.31,25.93Z"/><path class="cls-3" d="M99.58,15.93H96v9.35c0,.17-.34.65-.57.65h-2.1c-.23,0-.32-.47-.32-.65V15.93H89.18c-.23,0-.18-.14-.18-.31V14.4c0-.17-.06-.47.18-.47h10.4c.23,0,.42.3.42.47v1.22C100,15.79,99.81,15.93,99.58,15.93Z"/><path class="cls-3" d="M104.36,22.39a6.79,6.79,0,0,1,.34-2.18,5.4,5.4,0,0,1,1-1.78h1.1a6.33,6.33,0,0,0-.94,1.86,7,7,0,0,0-.32,2.09,6.73,6.73,0,0,0,.32,2.08,6.3,6.3,0,0,0,.92,1.82h-1.09a5.19,5.19,0,0,1-1-1.74A6.64,6.64,0,0,1,104.36,22.39Z"/><path class="cls-3" d="M110.59,19.47a1.39,1.39,0,0,0-1.19.58,2.69,2.69,0,0,0-.42,1.61q0,2.15,1.61,2.15a5.07,5.07,0,0,0,1.64-.34v1.14a4.53,4.53,0,0,1-1.77.33,2.69,2.69,0,0,1-2.14-.85,3.6,3.6,0,0,1-.74-2.44,4,4,0,0,1,.36-1.76,2.64,2.64,0,0,1,1-1.16,3.11,3.11,0,0,1,1.6-.4,4.32,4.32,0,0,1,1.88.45L112,19.9a7.27,7.27,0,0,0-.73-.3A2.16,2.16,0,0,0,110.59,19.47Z"/><path class="cls-3" d="M115.47,22.39a6.62,6.62,0,0,1-.34,2.15,5.14,5.14,0,0,1-1,1.74h-1.09a6.35,6.35,0,0,0,.92-1.81,6.73,6.73,0,0,0,.33-2.09,7,7,0,0,0-.32-2.09,6.33,6.33,0,0,0-.94-1.86h1.1a5.39,5.39,0,0,1,1,1.79A6.84,6.84,0,0,1,115.47,22.39Z"/><path class="cls-3" d="M122.68,22.39v2.46h-1.36V18.43h1.87a3.21,3.21,0,0,1,1.94.48,1.9,1.9,0,0,1,.32,2.46,2.08,2.08,0,0,1-.88.69q1.45,2.17,1.89,2.8h-1.51l-1.53-2.46Zm0-1.11h.44a1.68,1.68,0,0,0,1-.22.77.77,0,0,0,.31-.68.7.7,0,0,0-.31-.65,1.91,1.91,0,0,0-1-.19h-.41Z"/><path class="cls-3" d="M131,24.85h-3.7V18.43H131v1.12h-2.34V21h2.18v1.12h-2.18v1.66H131Z"/><path class="cls-3" d="M135,19.47a1.39,1.39,0,0,0-1.19.58,2.69,2.69,0,0,0-.42,1.61q0,2.15,1.61,2.15a5.07,5.07,0,0,0,1.64-.34v1.14a4.53,4.53,0,0,1-1.77.33,2.69,2.69,0,0,1-2.14-.85,3.6,3.6,0,0,1-.74-2.44,4,4,0,0,1,.36-1.76,2.64,2.64,0,0,1,1-1.16,3.11,3.11,0,0,1,1.6-.4,4.32,4.32,0,0,1,1.88.45l-.44,1.11a7.27,7.27,0,0,0-.73-.3A2.16,2.16,0,0,0,135,19.47Z"/><path class="cls-3" d="M139.4,22.39v2.46H138V18.43h1.87a3.21,3.21,0,0,1,1.94.48,1.9,1.9,0,0,1,.32,2.46,2.08,2.08,0,0,1-.88.69q1.45,2.17,1.89,2.8h-1.51l-1.53-2.46Zm0-1.11h.44a1.68,1.68,0,0,0,1-.22.77.77,0,0,0,.31-.68.7.7,0,0,0-.31-.65,1.91,1.91,0,0,0-1-.19h-.41Z"/><path class="cls-3" d="M149.21,18.43v4.16a2.4,2.4,0,0,1-.32,1.25,2.08,2.08,0,0,1-.92.82,3.31,3.31,0,0,1-1.42.29,2.72,2.72,0,0,1-1.92-.63,2.25,2.25,0,0,1-.69-1.74V18.43h1.36v3.93a1.64,1.64,0,0,0,.3,1.09,1.24,1.24,0,0,0,1,.35,1.21,1.21,0,0,0,1-.35,1.65,1.65,0,0,0,.3-1.1V18.43Z"/><path class="cls-3" d="M150.78,24.85V18.43h1.36v6.42Z"/><path class="cls-3" d="M156.24,24.85h-1.36V19.56h-1.74V18.43H158v1.13h-1.74Z"/><path class="cls-3" d="M164,24.85l-1.55-5h0q.08,1.54.08,2.05v3h-1.22V18.43h1.85l1.52,4.91h0l1.61-4.91h1.85v6.42h-1.27v-3c0-.14,0-.31,0-.5s0-.69.06-1.49h0l-1.66,5Z"/><path class="cls-3" d="M173.73,24.85l-.47-1.53h-2.34l-.46,1.53H169l2.27-6.45h1.67l2.28,6.45Zm-.79-2.67q-.65-2.08-.73-2.35c-.05-.18-.09-.32-.12-.43q-.15.56-.83,2.78Z"/><path class="cls-3" d="M177.37,22.39v2.46H176V18.43h1.87a3.2,3.2,0,0,1,1.94.48,1.9,1.9,0,0,1,.32,2.46,2.07,2.07,0,0,1-.88.69q1.45,2.17,1.89,2.8h-1.51l-1.53-2.46Zm0-1.11h.44a1.68,1.68,0,0,0,1-.22.77.77,0,0,0,.31-.68.7.7,0,0,0-.31-.65,1.91,1.91,0,0,0-1-.19h-.41Z"/><path class="cls-3" d="M187.11,24.85h-1.55l-1.68-2.71-.58.41v2.29h-1.36V18.43h1.36v2.94l.54-.76,1.74-2.18h1.51l-2.24,2.84Z"/><path class="cls-3" d="M191.62,24.85h-3.7V18.43h3.7v1.12h-2.34V21h2.18v1.12h-2.18v1.66h2.34Z"/><path class="cls-3" d="M195.44,24.85h-1.36V19.56h-1.75V18.43h4.85v1.13h-1.75Z"/><path class="cls-3" d="M198.18,24.85V18.43h1.36v6.42Z"/><path class="cls-3" d="M206.85,24.85h-1.73L202.33,20h0q.08,1.29.08,1.84v3h-1.22V18.43h1.72l2.79,4.81h0q-.07-1.25-.07-1.77v-3h1.23Z"/><path class="cls-3" d="M210.91,21.25h2.55v3.33a7.12,7.12,0,0,1-1.17.28,7.68,7.68,0,0,1-1.12.08,2.83,2.83,0,0,1-2.22-.85,3.55,3.55,0,0,1-.77-2.45,3.24,3.24,0,0,1,.89-2.43,3.38,3.38,0,0,1,2.47-.87,4.78,4.78,0,0,1,1.91.4L213,19.82a3.23,3.23,0,0,0-1.46-.35,1.81,1.81,0,0,0-1.42.59,2.3,2.3,0,0,0-.53,1.59,2.56,2.56,0,0,0,.43,1.6,1.48,1.48,0,0,0,1.25.55,4.4,4.4,0,0,0,.87-.09V22.38h-1.22Z"/><path class="cls-3" d="M221.77,20.43a2,2,0,0,1-.65,1.59,2.78,2.78,0,0,1-1.84.55h-.58v2.29h-1.36V18.43h2.05a2.73,2.73,0,0,1,1.78.5A1.83,1.83,0,0,1,221.77,20.43Zm-3.08,1h.45a1.5,1.5,0,0,0,.94-.25.87.87,0,0,0,.31-.72.89.89,0,0,0-.26-.71,1.23,1.23,0,0,0-.82-.23h-.62Z"/><path class="cls-3" d="M226.91,24.85l-.47-1.53H224.1l-.47,1.53h-1.47l2.27-6.45h1.67l2.28,6.45Zm-.79-2.67-.73-2.35c-.05-.18-.09-.32-.12-.43q-.15.56-.83,2.78Z"/><path class="cls-3" d="M230.55,22.39v2.46h-1.36V18.43h1.87a3.21,3.21,0,0,1,1.94.48,1.9,1.9,0,0,1,.32,2.46,2.08,2.08,0,0,1-.88.69q1.45,2.17,1.89,2.8h-1.51l-1.53-2.46Zm0-1.11H231a1.68,1.68,0,0,0,1-.22.77.77,0,0,0,.31-.68.7.7,0,0,0-.31-.65,1.91,1.91,0,0,0-1-.19h-.41Z"/><path class="cls-3" d="M237.61,24.85h-1.36V19.56H234.5V18.43h4.85v1.13h-1.74Z"/><path class="cls-3" d="M246,24.85h-1.73L241.51,20h0q.08,1.29.08,1.84v3h-1.22V18.43h1.72l2.79,4.81h0q-.07-1.25-.07-1.77v-3H246Z"/><path class="cls-3" d="M251.36,24.85h-3.7V18.43h3.7v1.12H249V21h2.18v1.12H249v1.66h2.34Z"/><path class="cls-3" d="M254.06,22.39v2.46H252.7V18.43h1.87a3.2,3.2,0,0,1,1.94.48,1.9,1.9,0,0,1,.32,2.46,2.07,2.07,0,0,1-.88.69q1.45,2.17,1.89,2.8h-1.51l-1.53-2.46Zm0-1.11h.44a1.68,1.68,0,0,0,1-.22.77.77,0,0,0,.31-.68.7.7,0,0,0-.31-.65,1.91,1.91,0,0,0-1-.19h-.41Z"/><path class="cls-3" d="M262.43,23.07a1.66,1.66,0,0,1-.63,1.37,2.72,2.72,0,0,1-1.74.5,4.09,4.09,0,0,1-1.82-.39V23.29a7.39,7.39,0,0,0,1.1.41,3.21,3.21,0,0,0,.82.12,1.16,1.16,0,0,0,.69-.17.58.58,0,0,0,.24-.51.57.57,0,0,0-.11-.34,1.18,1.18,0,0,0-.31-.28,7.8,7.8,0,0,0-.83-.44,3.91,3.91,0,0,1-.88-.53,2,2,0,0,1-.47-.59,1.69,1.69,0,0,1-.18-.79,1.66,1.66,0,0,1,.58-1.34,2.4,2.4,0,0,1,1.6-.49,3.78,3.78,0,0,1,1,.12,6.59,6.59,0,0,1,1,.33L262,19.85a6.39,6.39,0,0,0-.85-.29,2.73,2.73,0,0,0-.66-.08.87.87,0,0,0-.59.18.59.59,0,0,0-.21.47.57.57,0,0,0,.08.31.9.9,0,0,0,.27.26,8.27,8.27,0,0,0,.86.45,3.44,3.44,0,0,1,1.23.86A1.69,1.69,0,0,1,262.43,23.07Z"/><path class="cls-3" d="M268.66,19.47a1.39,1.39,0,0,0-1.19.58,2.69,2.69,0,0,0-.42,1.61q0,2.15,1.61,2.15a5.07,5.07,0,0,0,1.64-.34v1.14a4.53,4.53,0,0,1-1.77.33,2.69,2.69,0,0,1-2.14-.85,3.6,3.6,0,0,1-.74-2.44A4,4,0,0,1,266,19.9a2.64,2.64,0,0,1,1-1.16,3.11,3.11,0,0,1,1.6-.4,4.33,4.33,0,0,1,1.88.45l-.44,1.11a7.28,7.28,0,0,0-.73-.3A2.16,2.16,0,0,0,268.66,19.47Z"/><path class="cls-3" d="M277.5,21.63a3.48,3.48,0,0,1-.79,2.45,3.43,3.43,0,0,1-4.54,0,3.5,3.5,0,0,1-.79-2.46,3.45,3.45,0,0,1,.79-2.45,3,3,0,0,1,2.27-.85,2.93,2.93,0,0,1,2.27.85A3.5,3.5,0,0,1,277.5,21.63Zm-4.69,0a2.68,2.68,0,0,0,.41,1.62,1.43,1.43,0,0,0,1.22.54q1.63,0,1.63-2.17t-1.62-2.17a1.44,1.44,0,0,0-1.23.55A2.67,2.67,0,0,0,272.81,21.63Z"/><path class="cls-3" d="M278.54,24.23a.73.73,0,0,1,.2-.56.8.8,0,0,1,.58-.19.78.78,0,0,1,.57.19.85.85,0,0,1,0,1.1.77.77,0,0,1-.56.2.79.79,0,0,1-.57-.2A.73.73,0,0,1,278.54,24.23Z"/><path class="cls-3" d="M282.61,23.91a13.62,13.62,0,0,1-.77,2.11h-1q.29-1.17.44-2.21h1.23Z"/><path class="cls-3" d="M284,24.85V18.43h1.36v5.3H288v1.13Z"/><path class="cls-3" d="M291.57,24.85h-1.36V19.56h-1.75V18.43h4.85v1.13h-1.74Z"/><path class="cls-3" d="M299.64,21.58a3.17,3.17,0,0,1-.9,2.43,3.68,3.68,0,0,1-2.61.84h-1.82V18.43h2a3.39,3.39,0,0,1,2.44.83A3.05,3.05,0,0,1,299.64,21.58Zm-1.42,0q0-2.07-1.83-2.07h-.72v4.18h.58Q298.22,23.73,298.22,21.62Z"/></svg>